HIERARCHY
ROOT Hips
{
	OFFSET 0.000000 0.000000 0.000000
	CHANNELS 6 Xposition Yposition Zposition Zrotation Yrotation Xrotation 
	JOINT LHipJoint
	{
		OFFSET 0.000000 0.000000 0.000000
		CHANNELS 3 Zrotation Yrotation Xrotation
		JOINT LeftUpLeg
		{
			OFFSET 1.363060 -1.794630 0.839290
			CHANNELS 3 Zrotation Yrotation Xrotation
			JOINT LeftLeg
			{
				OFFSET 2.448110 -6.726130 0.000000
				CHANNELS 3 Zrotation Yrotation Xrotation
				JOINT LeftFoot
				{
					OFFSET 2.562200 -7.039590 0.000000
					CHANNELS 3 Zrotation Yrotation Xrotation
					JOINT LeftToeBase
					{
						OFFSET 0.157640 -0.433110 2.322550
						CHANNELS 3 Zrotation Yrotation Xrotation
						End Site
						{
							OFFSET 0.000000 0.000000 0.000000
						}
					}
				}
			}
		}
	}
	JOINT RHipJoint
	{
		OFFSET 0.000000 0.000000 0.000000
		CHANNELS 3 Zrotation Yrotation Xrotation
		JOINT RightUpLeg
		{
			OFFSET -1.305520 -1.794630 0.839290
			CHANNELS 3 Zrotation Yrotation Xrotation
			JOINT RightLeg
			{
				OFFSET -2.542530 -6.985550 0.000000
				CHANNELS 3 Zrotation Yrotation Xrotation
				JOINT RightFoot
				{
					OFFSET -2.568260 -7.056230 0.000000
					CHANNELS 3 Zrotation Yrotation Xrotation
					JOINT RightToeBase
					{
						OFFSET -0.164730 -0.452590 2.363150
						CHANNELS 3 Zrotation Yrotation Xrotation
						End Site
						{
							OFFSET 0.000000 0.000000 0.000000
						}
					}
				}
			}
		}
	}
	JOINT LowerBack
	{
		OFFSET 0.000000 0.000000 0.000000
		CHANNELS 3 Zrotation Yrotation Xrotation
		JOINT Spine
		{
			OFFSET 0.028270 2.035590 -0.193380
			CHANNELS 3 Zrotation Yrotation Xrotation
			JOINT Spine1
			{
				OFFSET 0.056720 2.048850 -0.042750
				CHANNELS 3 Zrotation Yrotation Xrotation
				JOINT Neck
				{
					OFFSET 0.000000 0.000000 0.000000
					CHANNELS 3 Zrotation Yrotation Xrotation
					JOINT Neck1
					{
						OFFSET -0.054170 1.746240 0.172020
						CHANNELS 3 Zrotation Yrotation Xrotation
						JOINT Head
						{
							OFFSET 0.104070 1.761360 -0.123970
							CHANNELS 3 Zrotation Yrotation Xrotation
							End Site
							{
								OFFSET 0.000000 0.000000 0.000000
							}
						}
					}
				}
				JOINT LeftShoulder
				{
					OFFSET 0.000000 0.000000 0.000000
					CHANNELS 3 Zrotation Yrotation Xrotation
					JOINT LeftArm
					{
						OFFSET 3.362410 1.200890 -0.311210
						CHANNELS 3 Zrotation Yrotation Xrotation
						JOINT LeftForeArm
						{
							OFFSET 4.983000 -0.000000 -0.000000
							CHANNELS 3 Zrotation Yrotation Xrotation
							JOINT LeftHand
							{
								OFFSET 3.483560 -0.000000 -0.000000
								CHANNELS 3 Zrotation Yrotation Xrotation
								JOINT LeftFingerBase
								{
									OFFSET 0.000000 0.000000 0.000000
									CHANNELS 3 Zrotation Yrotation Xrotation
									JOINT LeftHandIndex1
									{
										OFFSET 0.715260 -0.000000 -0.000000
										CHANNELS 3 Zrotation Yrotation Xrotation
										End Site
										{
											OFFSET 0.000000 0.000000 0.000000
										}
									}
								}
								JOINT LThumb
								{
									OFFSET 0.000000 0.000000 0.000000
									CHANNELS 3 Zrotation Yrotation Xrotation
									End Site
									{
										OFFSET 0.000000 0.000000 0.000000
									}
								}
							}
						}
					}
				}
				JOINT RightShoulder
				{
					OFFSET 0.000000 0.000000 0.000000
					CHANNELS 3 Zrotation Yrotation Xrotation
					JOINT RightArm
					{
						OFFSET -3.136600 1.374050 -0.404650
						CHANNELS 3 Zrotation Yrotation Xrotation
						JOINT RightForeArm
						{
							OFFSET -5.241900 -0.000000 -0.000000
							CHANNELS 3 Zrotation Yrotation Xrotation
							JOINT RightHand
							{
								OFFSET -3.444170 -0.000000 -0.000000
								CHANNELS 3 Zrotation Yrotation Xrotation
								JOINT RightFingerBase
								{
									OFFSET 0.000000 0.000000 0.000000
									CHANNELS 3 Zrotation Yrotation Xrotation
									JOINT RightHandIndex1
									{
										OFFSET -0.622530 -0.000000 -0.000000
										CHANNELS 3 Zrotation Yrotation Xrotation
										End Site
										{
											OFFSET 0.000000 0.000000 0.000000
										}
									}
								}
								JOINT RThumb
								{
									OFFSET 0.000000 0.000000 0.000000
									CHANNELS 3 Zrotation Yrotation Xrotation
									End Site
									{
										OFFSET 0.000000 0.000000 0.000000
									}
								}
							}
						}
					}
				}
			}
		}
	}
}
MOTION
Frames: 11
Frame Time: 0.008333
-1.306403 14.730430 6.698064 -175.234016 2.314563 178.044020 10.592059 18.503623 -11.425445 -17.133458 -12.594566 -20.090640 4.513523 14.391354 41.487747 -1.385706 1.706540 -18.524077 0.000000 0.000000 0.000000 -19.303884 -18.253997 6.996792 16.278141 -0.816076 13.702555 37.027776 -18.978451 15.438393 9.964796 -4.327227 -30.348646 0.000000 0.000000 0.000000 4.317394 0.029864 11.311702 0.679166 1.219380 -4.021346 -4.646965 0.590720 -11.082818 -2.547700 0.753922 2.676940 0.000000 0.000000 0.000000 0.000000 0.000000 0.000000 8.256912 1.961088 -1.611318 -54.669593 -24.238137 -5.368121 -120.431102 -68.145475 -180.000000 0.000000 0.000000 0.000000 0.000000 0.000000 0.000000 0.000000 0.000000 0.000000 0.000000 0.000000 0.000000 -10.422217 -5.735325 -9.818496 88.959922 32.890092 44.005072 -116.654662 60.978957 0.000000 0.000000 0.000000 0.000000 0.000000 0.000000 0.000000 0.000000 0.000000 0.000000 0.000000 0.000000 0.000000 
-1.264115 14.743866 6.752368 -175.305129 2.394679 178.038677 10.645014 18.551700 -11.297330 -16.723151 -12.691733 -20.463418 3.960216 14.826340 41.684792 -1.450319 2.146773 -18.360226 0.000000 0.000000 0.000000 -19.248778 -18.263609 6.923356 16.373598 -0.918094 13.729164 36.998795 -18.813748 15.281623 9.815551 -4.166262 -30.385933 0.000000 0.000000 0.000000 4.290435 0.033469 11.307919 0.684452 1.224237 -4.038437 -4.645876 0.612249 -11.042331 -2.550082 0.743224 2.854463 0.000000 0.000000 0.000000 0.000000 0.000000 0.000000 8.244930 2.164330 -1.917680 -54.790480 -24.856838 -4.092250 -118.528187 -69.452554 -180.000000 0.000000 0.000000 0.000000 0.000000 0.000000 0.000000 0.000000 0.000000 0.000000 0.000000 0.000000 0.000000 -10.396599 -5.743365 -9.605765 88.373947 33.170406 43.640750 -116.341475 61.146377 -0.000000 0.000000 0.000000 0.000000 0.000000 0.000000 0.000000 0.000000 0.000000 0.000000 0.000000 0.000000 0.000000 
-1.217862 14.774148 6.809600 -175.428244 2.492490 178.017275 10.783856 18.523829 -11.191607 -16.288745 -12.578825 -20.617563 3.091077 15.445633 41.647018 -1.507459 2.739241 -18.154051 0.000000 0.000000 0.000000 -19.165971 -18.193675 6.840679 16.363318 -1.142462 13.829952 37.088848 -18.585612 14.868238 9.609852 -4.096696 -30.226333 0.000000 0.000000 0.000000 4.203776 0.068633 11.278606 0.679533 1.249951 -4.047543 -4.728868 0.661980 -10.909150 -2.569218 0.727830 3.132800 0.000000 0.000000 0.000000 0.000000 0.000000 0.000000 8.212305 2.453926 -2.212600 -55.122862 -25.772568 -1.885989 -115.259262 -71.712703 -180.000000 0.000000 0.000000 0.000000 0.000000 0.000000 0.000000 0.000000 0.000000 0.000000 0.000000 0.000000 0.000000 -10.405372 -5.790194 -9.383341 87.733199 33.376184 43.121657 -116.031385 61.427912 -0.000000 0.000000 0.000000 0.000000 0.000000 0.000000 0.000000 0.000000 0.000000 0.000000 0.000000 0.000000 0.000000 
-1.167619 14.821395 6.869779 -175.607502 2.615126 177.962292 10.998386 18.416820 -11.096471 -15.816389 -12.244224 -20.542416 1.897510 16.251235 41.355528 -1.548994 3.490465 -17.889780 0.000000 0.000000 0.000000 -19.056849 -18.039524 6.759603 16.239137 -1.482666 14.010322 37.299216 -18.290036 14.197404 9.352154 -4.124751 -29.862138 0.000000 0.000000 0.000000 4.073444 0.132363 11.177054 0.663332 1.293659 -4.028619 -4.913110 0.743672 -10.583556 -2.625838 0.711283 3.530329 0.000000 0.000000 0.000000 0.000000 0.000000 0.000000 8.150457 2.784001 -2.412777 -55.639365 -27.032622 1.690405 -109.871549 -75.497275 -180.000000 0.000000 0.000000 0.000000 0.000000 0.000000 0.000000 0.000000 0.000000 0.000000 0.000000 0.000000 0.000000 -10.434472 -5.840698 -9.164393 87.033858 33.548793 42.414009 -115.686718 61.850203 -0.000000 0.000000 0.000000 0.000000 0.000000 0.000000 0.000000 0.000000 0.000000 0.000000 0.000000 0.000000 0.000000 
-1.117375 14.868641 6.929958 -175.795199 2.756086 177.881405 11.191215 18.304121 -10.976930 -15.310005 -11.889856 -20.460243 0.689820 17.065005 41.029796 -1.577458 4.257014 -17.596905 0.000000 0.000000 0.000000 -18.949529 -17.875246 6.692948 16.101810 -1.808307 14.196438 37.508899 -17.988764 13.528677 9.102268 -4.162719 -29.484144 0.000000 0.000000 0.000000 3.974755 0.179162 10.998593 0.644787 1.320824 -3.965920 -5.134215 0.822031 -10.073513 -2.723233 0.701355 3.926082 0.000000 0.000000 0.000000 0.000000 0.000000 0.000000 8.062553 2.998518 -2.406333 -56.017047 -28.308000 5.988681 -103.160462 -80.315292 180.000000 0.000000 0.000000 0.000000 0.000000 0.000000 0.000000 0.000000 0.000000 0.000000 0.000000 0.000000 0.000000 -10.432082 -5.818928 -8.991455 86.341430 33.806068 41.654398 -115.275378 62.323134 -0.000000 0.000000 0.000000 0.000000 0.000000 0.000000 0.000000 0.000000 0.000000 0.000000 0.000000 0.000000 0.000000 
-1.067131 14.915888 6.990137 -175.992368 2.923525 177.786185 11.362654 18.190080 -10.836995 -14.770990 -11.514382 -20.375458 -0.532659 17.887431 40.668528 -1.592293 5.039426 -17.274152 0.000000 0.000000 0.000000 -18.842461 -17.696782 6.630844 15.954023 -2.118138 14.383862 37.717447 -17.682402 12.862771 8.859803 -4.210546 -29.092419 0.000000 0.000000 0.000000 3.906062 0.187806 10.767867 0.623906 1.310228 -3.850368 -5.396494 0.877794 -9.387288 -2.864722 0.697255 4.253034 0.000000 0.000000 0.000000 0.000000 0.000000 0.000000 7.936331 3.055314 -2.102679 -56.102565 -29.463286 10.869838 -95.181720 -86.188292 180.000000 0.000000 0.000000 0.000000 0.000000 0.000000 0.000000 0.000000 0.000000 0.000000 0.000000 0.000000 0.000000 -10.390696 -5.722057 -8.900280 85.691361 34.166023 40.864477 -114.804906 62.868488 -0.000000 0.000000 0.000000 0.000000 0.000000 0.000000 0.000000 0.000000 0.000000 0.000000 0.000000 0.000000 0.000000 
-1.012211 14.979088 7.054470 -176.287672 3.148466 177.637183 11.624137 18.039829 -10.743489 -14.316745 -10.885376 -19.940659 -2.025406 18.833114 40.026356 -1.581301 5.931835 -16.904393 0.000000 0.000000 0.000000 -18.699455 -17.385396 6.592691 15.604623 -2.509916 14.640024 38.181441 -17.323970 11.878458 8.610733 -4.402144 -28.544352 0.000000 0.000000 0.000000 3.813484 0.099567 10.461289 0.583970 1.190552 -3.586057 -5.890175 0.878337 -8.175906 -3.131225 0.695295 4.420292 0.000000 0.000000 0.000000 0.000000 0.000000 0.000000 7.673261 2.789200 -0.880673 -55.484410 -30.523610 18.599926 98.573238 -83.280425 -0.000000 0.000000 0.000000 0.000000 0.000000 0.000000 0.000000 0.000000 0.000000 0.000000 0.000000 0.000000 0.000000 -10.313458 -5.516430 -9.082535 85.188672 34.715411 39.813085 -114.177861 63.821048 -0.000000 0.000000 0.000000 0.000000 0.000000 0.000000 0.000000 0.000000 0.000000 0.000000 0.000000 0.000000 0.000000 
-0.952516 15.058582 7.123046 -176.658593 3.478803 177.609336 11.986250 17.855057 -10.786233 -13.928727 -9.971146 -19.217802 -3.822398 19.921435 39.059457 -1.535264 6.956039 -16.453305 0.000000 0.000000 0.000000 -18.465236 -16.911649 6.467741 15.092485 -2.978277 14.897744 38.914498 -16.908657 10.556063 8.359544 -4.763027 -27.823203 0.000000 0.000000 0.000000 3.593253 -0.206253 10.443656 0.535318 0.839969 -3.275549 -6.541355 0.672376 -7.009386 -3.455631 0.668195 3.893888 0.000000 0.000000 0.000000 0.000000 0.000000 0.000000 7.184845 2.159980 1.396601 -53.453469 -30.358850 26.149657 114.431745 -70.234672 -0.000001 0.000000 0.000000 0.000000 0.000000 0.000000 0.000000 0.000000 0.000000 0.000000 0.000000 0.000000 0.000000 -10.140201 -5.359782 -9.674979 85.115750 35.429751 38.651806 -113.272141 65.587122 -0.000000 0.000000 0.000000 0.000000 0.000000 0.000000 0.000000 0.000000 0.000000 0.000000 0.000000 0.000000 0.000000 
-0.892820 15.138076 7.191621 -176.999264 3.831035 177.736176 12.326511 17.645775 -10.906750 -13.482921 -9.016669 -18.557845 -5.657839 21.019418 38.019606 -1.462319 8.017961 -15.918995 0.000000 0.000000 0.000000 -18.168460 -16.422666 6.262782 14.614573 -3.431118 15.088413 39.655095 -16.482771 9.215498 8.120877 -5.165390 -27.068236 0.000000 0.000000 0.000000 3.285589 -0.549336 10.728420 0.505056 0.454092 -3.172517 -7.090841 0.373356 -6.614200 -3.720481 0.625793 3.185198 0.000000 0.000000 0.000000 0.000000 0.000000 0.000000 6.692938 1.755598 3.081828 -51.569056 -29.446473 29.422489 123.208810 -62.239790 0.000004 0.000000 0.000000 0.000000 0.000000 0.000000 0.000000 0.000000 0.000000 0.000000 0.000000 0.000000 0.000000 -9.950425 -5.426992 -10.193638 85.284379 36.024153 37.356458 -111.666338 68.118030 -0.000000 0.000000 0.000000 0.000000 0.000000 0.000000 0.000000 0.000000 0.000000 0.000000 0.000000 0.000000 0.000000 
-0.833125 15.217570 7.260197 -177.332492 4.180990 177.864988 12.622386 17.414357 -11.021113 -12.975274 -8.032523 -17.903834 -7.513818 22.102846 36.924859 -1.362013 9.111712 -15.294525 0.000000 0.000000 0.000000 -17.849089 -15.933969 6.075761 14.129217 -3.862822 15.268279 40.394068 -16.045093 7.870057 7.892369 -5.605989 -26.275998 0.000000 0.000000 0.000000 2.987380 -0.853451 10.985123 0.488676 0.110197 -3.180741 -7.610700 0.089686 -6.494285 -4.022235 0.599480 2.787566 0.000000 0.000000 0.000000 0.000000 0.000000 0.000000 6.268940 1.639960 4.053359 -50.355189 -28.642666 30.699862 127.402402 -57.969741 0.000002 0.000000 0.000000 0.000000 0.000000 0.000000 0.000000 0.000000 0.000000 0.000000 0.000000 0.000000 0.000000 -9.766587 -5.639341 -10.527621 85.574878 36.671542 35.372061 -108.509581 71.770212 -0.000000 0.000000 0.000000 0.000000 0.000000 0.000000 0.000000 0.000000 0.000000 0.000000 0.000000 0.000000 0.000000 
-0.781592 15.290254 7.319472 -177.645335 4.593998 177.931333 12.836308 17.317392 -11.065707 -12.690194 -7.412096 -17.421818 -8.593672 23.089939 36.648914 -1.338165 10.212266 -14.741142 0.000000 0.000000 0.000000 -17.564776 -15.616611 5.887873 13.682789 -4.112006 15.132902 40.810776 -15.999597 7.285338 7.723505 -6.015992 -25.634634 0.000000 0.000000 0.000000 2.796235 -1.135859 11.204828 0.488702 -0.204309 -3.229505 -8.118160 -0.179655 -6.462151 -4.367969 0.590593 2.564171 0.000000 0.000000 0.000000 0.000000 0.000000 0.000000 5.903755 1.731396 4.624518 -49.553544 -28.041001 31.327434 129.684015 -55.373105 0.000001 0.000000 0.000000 0.000000 0.000000 0.000000 0.000000 0.000000 0.000000 0.000000 0.000000 0.000000 0.000000 -9.587607 -5.982654 -10.677816 86.023255 37.470266 32.521065 -103.453061 76.576506 -0.000000 0.000000 0.000000 0.000000 0.000000 0.000000 0.000000 0.000000 0.000000 0.000000 0.000000 0.000000 0.000000 
